GIL12_fast2_RRA_states
nRows=7
nColumns=47

# SIMM Motion File Header:
name GIL12_fast2_RRA_states
datacolumns 47
datarows 7
otherdata 1
range 0.66067000000000042000 0.66367000000000043000
endheader
time	pelvis_tx	pelvis_ty	pelvis_tz	pelvis_tilt	pelvis_list	pelvis_rotation	hip_flexion_r	hip_adduction_r	hip_rotation_r	knee_angle_r	ankle_angle_r	subtalar_angle_r	mtp_angle_r	hip_flexion_l	hip_adduction_l	hip_rotation_l	knee_angle_l	ankle_angle_l	subtalar_angle_l	mtp_angle_l	lumbar_extension	lumbar_bending	lumbar_rotation	pelvis_tx_u	pelvis_ty_u	pelvis_tz_u	pelvis_tilt_u	pelvis_list_u	pelvis_rotation_u	hip_flexion_r_u	hip_adduction_r_u	hip_rotation_r_u	knee_angle_r_u	ankle_angle_r_u	subtalar_angle_r_u	mtp_angle_r_u	hip_flexion_l_u	hip_adduction_l_u	hip_rotation_l_u	knee_angle_l_u	ankle_angle_l_u	subtalar_angle_l_u	mtp_angle_l_u	lumbar_extension_u	lumbar_bending_u	lumbar_rotation_u
      0.66067000000000042000	      1.39118500701184300000	      0.69665486346637762000	     -0.29874641174118843000	      3.05791229233476130000	      1.51272515939507430000	     -7.91140636565682520000	     17.67602092210847100000	     -6.19838126477360430000	    -12.97236989929452700000	    -49.44810879115436100000	      0.76498626058082786000	      0.00000000000003298893	      0.00000000000008436601	     -5.83352488132582000000	      2.41904969814152530000	     -7.45999456335719200000	     -4.53731196720481030000	      4.69475571499770080000	     -0.00000000000007580895	      0.00000000000003479233	    -20.78037264639802100000	     -6.95252204319354570000	      0.30956943528046338000	      1.37121666815229260000	      0.02729267190073845400	     -0.00419892815796947800	      1.38383286085983960000	    -37.47943984984232900000	    -28.08208757131769000000	    148.58412158452350000000	    105.55576980044896000000	    204.78999911230574000000	    265.82721311137897000000	     72.67874596098458500000	     -0.00000000000014826002	      0.00000000000082254564	   -214.54123587960788000000	    -25.47832078397216900000	    -52.36795761074834800000	    175.83665406272198000000	    -21.51440309027010800000	     -0.00000000000046525543	      0.00000000000029392393	     -4.54459808011037940000	     52.28594156488513500000	     71.47736351433982800000
      0.66117000000000037000	      1.39187054047023610000	      0.69666788828164927000	     -0.29874851632717414000	      3.05867840019109270000	      1.49399521964734760000	     -7.92530954239117320000	     17.74996758739121800000	     -6.14558603971294470000	    -12.86970204742121600000	    -49.31460499827071700000	      0.80099936563311358000	      0.00000000000003291461	      0.00000000000008477666	     -5.94077711199520580000	      2.40633447006108850000	     -7.48592291954942630000	     -4.44958893519278750000	      4.68402718608379410000	     -0.00000000000007604708	      0.00000000000003494375	    -20.78280281390604500000	     -6.92640323249257060000	      0.34526505474201147000	      1.37091745006347510000	      0.02480726447117081700	     -0.00422203817409341500	      1.68068598396689730000	    -37.43976596869905600000	    -27.52886033888575300000	    147.20193353382945000000	    105.62253838991620000000	    205.87762975936832000000	    268.18875744832883000000	     71.37098603856279100000	     -0.00000000000014695483	      0.00000000000081678730	   -214.46813219902285000000	    -25.38186590045090100000	    -51.34256533451090100000	    175.05598198364368000000	    -21.39860174625010800000	     -0.00000000000047867650	      0.00000000000030065095	     -5.17628780387245780000	     52.18940378671448600000	     71.30257410043024900000
      0.66167000000000042000	      1.39255592473991840000	      0.69667967140332809000	     -0.29875063635493976000	      3.05959306863815030000	      1.47528597204763610000	     -7.93893352609518830000	     17.82322227810068700000	     -6.09276134132666860000	    -12.76649600624393700000	    -49.17991925705509700000	      0.83635453586316488000	      0.00000000000003284109	      0.00000000000008518465	     -6.04799346405023200000	      2.39366858707219570000	     -7.51133429786394750000	     -4.36225547999206320000	      4.67335834310781630000	     -0.00000000000007628393	      0.00000000000003507856	    -20.78554914251243700000	     -6.90033258060781750000	      0.38086951629090532000	      1.37061990041956230000	      0.02232589482070919700	     -0.00426060182072715310	      1.97808058450417400000	    -37.39662046454118600000	    -26.96543425656390600000	    145.81628191361585000000	    105.67361743260226000000	    206.94283824128161000000	    270.55495875276722000000	     70.04696313850666900000	     -0.00000000000014868526	      0.00000000000081652290	   -214.39773169773792000000	    -25.28088193139859300000	    -50.30018907569198200000	    174.27834202449577000000	    -21.27542108756486200000	     -0.00000000000048541759	      0.00000000000027241976	     -5.80922657723379480000	     52.09321906194097100000	     71.11282626445775200000
      0.66217000000000037000	      1.39324116065892770000	      0.69669021483819604000	     -0.29875277946421847000	      3.06065656166990060000	      1.45659919339718050000	     -7.95227329847093770000	     17.89578332047039000000	     -6.03991506722134370000	    -12.66276297088459300000	    -49.04404929474757300000	      0.87104366222246798000	      0.00000000000003276707	      0.00000000000008559282	     -6.15517528737852700000	      2.38105433766028220000	     -7.53622035369286540000	     -4.27531007473610640000	      4.66275298948323160000	     -0.00000000000007652374	      0.00000000000003521887	    -20.78861222690485300000	     -6.87430998172570360000	      0.41637541219252150000	      1.37032408086336610000	      0.01984849861424933800	     -0.00431437714353715730	      2.27596023164849240000	    -37.34990981938979400000	    -26.39193948435656600000	    144.42733894998253000000	    105.70882665551078000000	    207.98547458070880000000	    272.92562578099484000000	     68.70694264515525200000	     -0.00000000000014695970	      0.00000000000081713190	   -214.32999346042453000000	    -25.17540104715876800000	    -49.24128396101201600000	    173.50381346258587000000	    -21.14489336570953500000	     -0.00000000000048089556	      0.00000000000028247353	     -6.44328317629207700000	     51.99722492839300300000	     70.90826550163048100000
      0.66267000000000043000	      1.39392624911954210000	      0.69669952055260498000	     -0.29875495322850254000	      3.06186910025431170000	      1.43793667168452170000	     -7.96532380790008430000	     17.96764909686461600000	     -5.98705518955210360000	    -12.55851432141017600000	    -48.90699291844175900000	      0.90505885628411875000	      0.00000000000003269348	      0.00000000000008600155	     -6.26232389429939930000	      2.36849393030977580000	     -7.56057290051242600000	     -4.18875113585878630000	      4.65221467045910230000	     -0.00000000000007675934	      0.00000000000003535798	    -20.79199259029632800000	     -6.84833535008136350000	      0.45177533621275884000	      1.37003005423303350000	      0.01737500927912764100	     -0.00438313110587153480	      2.57426774303527850000	    -37.29954254673381100000	    -25.80849921584669800000	    143.03527656533478000000	    105.72798673721498000000	    209.00537057025849000000	    275.30056685086527000000	     67.35119040833272700000	     -0.00000000000014731193	      0.00000000000081889339	   -214.26487596782809000000	    -25.06545437278045100000	    -48.16629199026981900000	    172.73246965121527000000	    -21.00704134508415800000	     -0.00000000000044371090	      0.00000000000027717555	     -7.07832660254448150000	     51.90126463605003700000	     70.68903141424782200000
      0.66317000000000037000	      1.39461119102168830000	      0.69670759048658470000	     -0.29875716505007516000	      3.06323089114915040000	      1.41930027522799220000	     -7.97808016276746200000	     18.03881810587456500000	     -5.93418978339029920000	    -12.45376141268156900000	    -48.76874804822522700000	      0.93839227787355595000	      0.00000000000003261991	      0.00000000000008641107	     -6.36944059172971230000	      2.35598962162582600000	     -7.58438404213799800000	     -4.10257706352485400000	      4.64174716259265010000	     -0.00000000000007697133	      0.00000000000003547823	    -20.79569069565990000000	     -6.82240873777309530000	      0.48706202035848917000	      1.36973787921841540000	      0.01490535768915729800	     -0.00446661391743961330	      2.87294534621738020000	    -37.24542915794307200000	    -25.21524977035280900000	    141.64026886842089000000	    105.73092923935317000000	    210.00239047259976000000	    277.67958305415834000000	     65.97999138675709200000	     -0.00000000000014861577	      0.00000000000081971540	   -214.20232889422121000000	    -24.95107794584879100000	    -47.07567943739489600000	    171.96437595813055000000	    -20.86190260645227900000	     -0.00000000000040896194	      0.00000000000020974837	     -7.71422224117597820000	     51.80518061533380300000	     70.45525777460504500000
      0.66367000000000043000	      1.39529598731727430000	      0.69671442653757687000	     -0.29875942225717977000	      3.06474209758448790000	      1.40069188149409870000	     -7.99053744411948410000	     18.10928890350014700000	     -5.88132699121950790000	    -12.34851576907026800000	    -48.62931268889774100000	      0.97103632055881361000	      0.00000000000003254551	      0.00000000000008682075	     -6.47652664302487310000	      2.34354358480150670000	     -7.60764605161782810000	     -4.01678620855218420000	      4.63135397693180370000	     -0.00000000000007717471	      0.00000000000003557666	    -20.79970693231871300000	     -6.79653021542215190000	      0.52222819186074954000	      1.36944761564267380000	      0.01243947268288893300	     -0.00456458536866528180	      3.17193440714199020000	    -37.18748208063976100000	    -24.61231962684035700000	    140.24248948366812000000	    105.71748648033712000000	    210.97637975706891000000	    280.06247523086000000000	     64.59363133541127400000	     -0.00000000000015083279	      0.00000000000082130317	   -214.14230080675904000000	    -24.83230682934361900000	    -45.96989794587570100000	    171.19959106417093000000	    -20.70950956070328500000	     -0.00000000000039937996	      0.00000000000019683860	     -8.35083574471836880000	     51.70882110519860200000	     70.20707156571701500000
